<svg width="155" height="60" viewBox="0 0 155 60" fill="none" xmlns="http://www.w3.org/2000/svg">
<rect width="154.513" height="60" fill="white"/>
<path fill-rule="evenodd" clip-rule="evenodd" d="M48.6485 10.6195L55.0202 16.9912L53.8938 18.1176L47.5221 11.7459L48.6485 10.6195Z" fill="#313131"/>
<path fill-rule="evenodd" clip-rule="evenodd" d="M55.4716 16.9912L53.8938 18.569L47.0706 11.7459L48.6485 10.168L55.4716 16.9912ZM48.6485 10.6195L55.0202 16.9912L53.8938 18.1176L47.5221 11.7459L48.6485 10.6195Z" fill="#313131"/>
<path fill-rule="evenodd" clip-rule="evenodd" d="M48.6485 29.0024L55.0202 22.6308L53.8938 21.5044L47.5221 27.8761L48.6485 29.0024Z" fill="#D52A8E"/>
<path fill-rule="evenodd" clip-rule="evenodd" d="M55.4716 22.6308L53.8938 21.0529L47.0706 27.8761L48.6485 29.4539L55.4716 22.6308ZM48.6485 29.0024L55.0202 22.6308L53.8938 21.5044L47.5221 27.8761L48.6485 29.0024Z" fill="#D52A8E"/>
<path fill-rule="evenodd" clip-rule="evenodd" d="M64.843 10.6195L58.4713 16.9912L59.5977 18.1176L65.9693 11.7459L64.843 10.6195Z" fill="#D52A8E"/>
<path fill-rule="evenodd" clip-rule="evenodd" d="M58.0198 16.9912L59.5977 18.569L66.4208 11.7459L64.843 10.168L58.0198 16.9912ZM64.843 10.6195L58.4713 16.9912L59.5977 18.1176L65.9693 11.7459L64.843 10.6195Z" fill="#D52A8E"/>
<path fill-rule="evenodd" clip-rule="evenodd" d="M64.843 29.0024L58.4713 22.6308L59.5977 21.5044L65.9693 27.8761L64.843 29.0024Z" fill="#313131"/>
<path fill-rule="evenodd" clip-rule="evenodd" d="M58.0198 22.6308L59.5977 21.0529L66.4208 27.8761L64.843 29.4539L58.0198 22.6308ZM64.843 29.0024L58.4713 22.6308L59.5977 21.5044L65.9693 27.8761L64.843 29.0024Z" fill="#313131"/>
<path fill-rule="evenodd" clip-rule="evenodd" d="M69.3565 10.6195L75.7282 16.9912L74.6018 18.1176L68.2301 11.7459L69.3565 10.6195Z" fill="#D52A8E"/>
<path fill-rule="evenodd" clip-rule="evenodd" d="M76.1796 16.9912L74.6018 18.569L67.7786 11.7459L69.3565 10.168L76.1796 16.9912ZM69.3565 10.6195L75.7282 16.9912L74.6018 18.1176L68.2301 11.7459L69.3565 10.6195Z" fill="#D52A8E"/>
<path fill-rule="evenodd" clip-rule="evenodd" d="M69.3565 29.0024L75.7282 22.6308L74.6018 21.5044L68.2301 27.8761L69.3565 29.0024Z" fill="#313131"/>
<path fill-rule="evenodd" clip-rule="evenodd" d="M76.1796 22.6308L74.6018 21.0529L67.7786 27.8761L69.3565 29.4539L76.1796 22.6308ZM69.3565 29.0024L75.7282 22.6308L74.6018 21.5044L68.2301 27.8761L69.3565 29.0024Z" fill="#313131"/>
<path fill-rule="evenodd" clip-rule="evenodd" d="M85.551 10.6195L79.1793 16.9912L80.3057 18.1176L86.6773 11.7459L85.551 10.6195Z" fill="#313131"/>
<path fill-rule="evenodd" clip-rule="evenodd" d="M78.7278 16.9912L80.3057 18.569L87.1288 11.7459L85.551 10.168L78.7278 16.9912ZM85.551 10.6195L79.1793 16.9912L80.3057 18.1176L86.6773 11.7459L85.551 10.6195Z" fill="#313131"/>
<path fill-rule="evenodd" clip-rule="evenodd" d="M85.551 29.0024L79.1793 22.6308L80.3057 21.5044L86.6773 27.8761L85.551 29.0024Z" fill="#D52A8E"/>
<path fill-rule="evenodd" clip-rule="evenodd" d="M78.7278 22.6308L80.3057 21.0529L87.1288 27.8761L85.551 29.4539L78.7278 22.6308ZM85.551 29.0024L79.1793 22.6308L80.3057 21.5044L86.6773 27.8761L85.551 29.0024Z" fill="#D52A8E"/>
<path fill-rule="evenodd" clip-rule="evenodd" d="M90.0645 10.6195L96.4362 16.9912L95.3098 18.1176L88.9381 11.7459L90.0645 10.6195Z" fill="#313131"/>
<path fill-rule="evenodd" clip-rule="evenodd" d="M96.8877 16.9912L95.3098 18.569L88.4867 11.7459L90.0645 10.168L96.8877 16.9912ZM90.0645 10.6195L96.4362 16.9912L95.3098 18.1176L88.9381 11.7459L90.0645 10.6195Z" fill="#313131"/>
<path fill-rule="evenodd" clip-rule="evenodd" d="M90.0645 29.0024L96.4362 22.6308L95.3098 21.5044L88.9381 27.8761L90.0645 29.0024Z" fill="#D52A8E"/>
<path fill-rule="evenodd" clip-rule="evenodd" d="M96.8877 22.6308L95.3098 21.0529L88.4867 27.8761L90.0645 29.4539L96.8877 22.6308ZM90.0645 29.0024L96.4362 22.6308L95.3098 21.5044L88.9381 27.8761L90.0645 29.0024Z" fill="#D52A8E"/>
<path fill-rule="evenodd" clip-rule="evenodd" d="M106.259 10.6195L99.8873 16.9912L101.014 18.1176L107.385 11.7459L106.259 10.6195Z" fill="#D52A8E"/>
<path fill-rule="evenodd" clip-rule="evenodd" d="M99.4358 16.9912L101.014 18.569L107.837 11.7459L106.259 10.168L99.4358 16.9912ZM106.259 10.6195L99.8873 16.9912L101.014 18.1176L107.385 11.7459L106.259 10.6195Z" fill="#D52A8E"/>
<path fill-rule="evenodd" clip-rule="evenodd" d="M106.259 29.0024L99.8873 22.6308L101.014 21.5044L107.385 27.8761L106.259 29.0024Z" fill="#313131"/>
<path fill-rule="evenodd" clip-rule="evenodd" d="M99.4358 22.6308L101.014 21.0529L107.837 27.8761L106.259 29.4539L99.4358 22.6308ZM106.259 29.0024L99.8873 22.6308L101.014 21.5044L107.385 27.8761L106.259 29.0024Z" fill="#313131"/>
<mask id="path-25-outside-1_11559_1336" maskUnits="userSpaceOnUse" x="9.61938" y="35.1062" width="136" height="15" fill="black">
<rect fill="white" x="9.61938" y="35.1062" width="136" height="15"/>
<path fill-rule="evenodd" clip-rule="evenodd" d="M16.8156 36.274C18.5674 36.5542 18.446 36.4145 18.4257 38.1284C18.4157 38.9597 18.3709 39.7023 18.3262 39.7786C18.2815 39.855 18.0653 39.5958 17.8455 39.2027C16.4303 36.6707 13.9252 35.823 12.5127 37.3981C12.3173 37.6162 12.2055 37.9854 12.2055 38.4135C12.2055 39.3422 12.9475 40.0763 15.463 41.6361C16.5575 42.3149 17.6735 43.1235 17.9428 43.433C19.3711 45.0746 18.8477 47.7522 16.9009 48.7622C16.1717 49.1407 15.9074 49.1826 14.292 49.1767C13.3035 49.1729 12.0726 49.0752 11.557 48.9593L10.6194 48.7486V47.007V45.2655L11.2428 46.2371C12.9144 48.8427 15.149 49.5191 16.6526 47.8748C16.9969 47.4982 17.0602 47.2691 17.0602 46.3987C17.0602 44.9818 16.7237 44.5951 14.041 42.9301C12.8318 42.1795 11.6348 41.3075 11.381 40.9923C10.1987 39.5232 10.8327 37.245 12.6562 36.4089C13.4101 36.0634 15.1462 36.0071 16.8156 36.274ZM39.6439 36.3255L40.7037 36.5134L40.7505 38.235L40.7975 39.9566L40.1674 38.973C38.8343 36.8913 37.1719 36.1242 35.6127 36.8708C34.9391 37.1935 34.5178 38.0328 34.6725 38.7438C34.8225 39.4326 35.8141 40.3364 37.6289 41.4382C40.6832 43.2924 41.1698 43.8687 41.1841 45.6477C41.1959 47.0995 40.5994 48.1416 39.4011 48.7629C38.6666 49.1438 38.4139 49.1826 36.7121 49.1762C35.6789 49.1723 34.4483 49.0722 33.9776 48.9541L33.1215 48.7392L33.1235 46.9866L33.1254 45.2342L33.5417 45.9747C34.8035 48.2189 36.7988 49.2631 38.3361 48.4836C39.4808 47.9033 39.9211 46.6335 39.4076 45.3933C39.0837 44.6116 38.5274 44.1298 36.7124 43.0601C33.8962 41.4004 33.2846 40.7017 33.2846 39.1448C33.2846 37.7863 34.1411 36.6875 35.5289 36.2659C36.1655 36.0724 38.3994 36.1048 39.6439 36.3255ZM49.2643 36.274C51.0299 36.5565 50.8954 36.3827 50.8918 38.3755L50.8887 40.1334L50.3849 39.3106C48.7458 36.6345 46.6526 35.8445 45.0656 37.303C44.7887 37.5576 44.6987 37.8223 44.6987 38.3823C44.6987 39.0526 44.7737 39.1969 45.474 39.8757C45.9004 40.2889 46.9748 41.0624 47.8614 41.5945C50.6787 43.2855 51.3626 44.2145 51.1706 46.0905C50.916 48.5812 48.7381 49.6478 44.9985 49.1134C42.8886 48.8117 43.0679 49.0089 43.0697 46.9921L43.0712 45.2342L43.6929 46.2215C45.3773 48.8957 47.6856 49.5502 49.1668 47.7738C49.5767 47.2821 49.6178 47.126 49.5577 46.2867C49.4717 45.0891 49.0134 44.4698 47.5607 43.5888C45.0745 42.0812 44.0771 41.3795 43.7384 40.8995C43.3004 40.2788 43.126 38.9792 43.3773 38.2108C43.6161 37.4801 44.483 36.634 45.2898 36.3437C46.0465 36.0716 47.8056 36.0407 49.2643 36.274ZM90.1921 36.274C91.9574 36.5565 91.8228 36.3829 91.8212 38.3755L91.8196 40.1334L91.3457 39.3106C90.0798 37.1128 88.291 36.1553 86.7025 36.825C85.9855 37.1275 85.6264 37.6743 85.6264 38.4639C85.6264 39.0028 85.7388 39.2188 86.3195 39.7962C86.7005 40.1753 87.8563 41.0115 88.8876 41.6546C91.6239 43.3607 92.1488 44.0235 92.1488 45.7733C92.1488 47.7608 90.7864 49.0438 88.4894 49.219C87.0963 49.3253 84.568 48.9967 84.2409 48.6668C84.0699 48.494 84.0171 48.0461 84.0394 46.9568C84.0562 46.1451 84.1084 45.481 84.1555 45.481C84.2025 45.481 84.4188 45.8195 84.6364 46.233C85.081 47.0789 86.2575 48.2077 87.048 48.5468C87.7658 48.8549 88.5144 48.8238 89.3253 48.4522C90.1456 48.0762 90.5182 47.4311 90.5182 46.386C90.5182 44.9853 90.0176 44.4393 87.2225 42.7914C84.6916 41.2992 83.9843 40.319 84.2325 38.6484C84.3742 37.6955 85.2292 36.6949 86.1972 36.3493C86.9736 36.0721 88.7236 36.0392 90.1921 36.274ZM116.608 36.7026C117.95 37.3438 118.8 38.2008 119.438 39.5575C119.875 40.485 119.95 40.8481 120.004 42.2922C120.08 44.2897 119.798 45.4837 118.953 46.74C117.664 48.6586 114.957 49.6282 112.341 49.1087C109.59 48.5625 107.839 46.6605 107.487 43.8364C107.098 40.7055 108.284 38.0137 110.568 36.8456C111.744 36.2445 112.421 36.1117 114.08 36.1567C115.332 36.1906 115.704 36.2709 116.608 36.7026ZM26.273 36.4494C26.273 36.7237 29.9945 46.4217 30.4408 47.3106C30.6538 47.7345 31.0236 48.2367 31.263 48.4265L31.698 48.7719H29.9355H28.1728L28.5275 48.3912C29.135 47.7384 28.9369 46.5325 27.8262 44.1227C27.3704 43.1338 26.9797 42.7924 26.4033 42.8791C25.8142 42.9678 25.4758 43.6809 25.1189 45.5859C24.6258 48.2174 24.0501 48.9913 22.5851 48.9913C21.2458 48.9913 20.3698 47.9434 20.371 46.3426C20.3718 45.0307 20.6979 44.3026 22.6362 41.286C24.3975 38.5445 24.8303 37.5943 24.5355 37.1151C24.4432 36.9652 24.0077 36.7189 23.5674 36.5677L22.7673 36.2929L24.5202 36.2797C25.7043 36.2709 26.273 36.3258 26.273 36.4494ZM57.4434 36.4905C56.4334 36.8596 56.4629 37.0233 58.0234 39.7136C58.8109 41.0716 59.4924 42.1844 59.5375 42.1865C59.6712 42.1925 62.4721 37.4144 62.4721 37.1801C62.4721 36.9068 62.1947 36.6862 61.5753 36.4662C61.1922 36.3303 61.6165 36.2927 63.532 36.2936C65.8743 36.2945 65.941 36.3036 65.106 36.5075C63.5631 36.8841 63.0681 37.3838 61.2995 40.3497L59.7001 43.0321V45.4761V47.9199L60.2018 48.3459C60.4777 48.5802 60.8262 48.7731 60.9764 48.7744C61.1264 48.7759 61.3592 48.8488 61.4937 48.9365C61.6565 49.0426 60.7559 49.0943 58.8033 49.0908L55.8682 49.0855L56.652 48.7765C57.9515 48.2643 57.9064 48.3826 57.9064 45.4741V42.8748L56.3134 40.2286C54.5771 37.3445 54.191 36.9534 52.6683 36.5364C51.817 36.3034 51.8809 36.2964 54.8899 36.2941C57.5024 36.2919 57.9025 36.3228 57.4434 36.4905ZM81.7907 36.6368C81.8368 36.8405 81.9359 37.4246 82.0109 37.9351L82.1473 38.8631L81.33 38.2112C79.8651 37.0427 79.3806 36.8662 77.4327 36.7913L75.6799 36.7238V39.5392V42.3547H77.1268C79.169 42.3547 80.6201 41.8305 80.9979 40.9561C81.1867 40.5189 81.2102 40.7163 81.2035 42.6838C81.1983 44.1767 81.1502 44.7516 81.0567 44.437C80.877 43.832 80.5498 43.5934 79.3263 43.1756C78.5725 42.9183 78.009 42.8457 77.0435 42.8822L75.7614 42.9306V45.7279V48.5251L77.2289 48.5113C78.9138 48.4955 79.9077 48.1193 81.3711 46.9435C81.8282 46.5763 82.1976 46.3747 82.1923 46.4955C82.1867 46.6162 82.0933 47.2334 81.9847 47.8669L81.7872 49.0187L76.8177 49.0484C71.9316 49.0776 71.8613 49.0734 72.6427 48.7943C74.0913 48.2771 74.0496 48.4583 74.0468 42.7067C74.045 39.0038 73.9902 37.5559 73.8404 37.2538C73.7059 36.9827 73.3594 36.7467 72.8237 36.5618C72.022 36.2847 72.0759 36.2809 76.8589 36.2738L81.7068 36.2666L81.7907 36.6368ZM103.685 36.6742L104.704 36.9682L104.696 38.5508C104.687 40.0916 104.68 40.1225 104.411 39.722C103.932 39.009 102.721 37.7578 102.189 37.426C100.872 36.6046 98.966 36.6712 97.7199 37.5821C95.3121 39.3421 95.3413 45.0429 97.7711 47.5648C98.4207 48.2391 98.7889 48.4725 99.5544 48.6951C101.222 49.1802 102.805 48.7591 103.856 47.551C104.68 46.6037 104.77 44.9445 104.05 43.962C103.668 43.4402 103.737 43.168 104.182 43.4423C104.668 43.7416 105.03 44.6889 105.03 45.6609C105.031 48.1891 102.71 49.7554 99.633 49.3029C95.9877 48.7667 93.8896 46.1075 94.1512 42.3547C94.3534 39.4505 95.8325 37.4028 98.3302 36.5685C99.4827 36.1835 102.168 36.2365 103.685 36.6742ZM129.571 36.7034C130.376 37.141 130.794 37.8327 130.794 38.7272C130.794 39.9 130.105 40.7952 128.612 41.5639L127.941 41.9091L128.706 42.1342C129.675 42.4194 130.541 43.2358 130.775 44.0844C130.874 44.4452 130.955 45.4483 130.956 46.3135C130.956 47.3118 131.031 47.9884 131.161 48.1656C131.273 48.3193 131.731 48.5891 132.18 48.7653L132.995 49.0855L130.06 49.0908C128.107 49.0943 127.207 49.0426 127.37 48.9365C127.504 48.8488 127.737 48.7759 127.887 48.7744C128.037 48.7731 128.386 48.5802 128.661 48.3459L129.163 47.9199V46.053C129.163 45.0262 129.085 43.9776 128.989 43.7229C128.288 41.854 126.087 42.2002 125.027 44.3465C124.669 45.0715 124.598 45.4391 124.598 46.5514C124.598 47.3606 124.678 47.9963 124.801 48.1656C124.914 48.3193 125.372 48.5891 125.82 48.7653L126.636 49.0855H123.701H120.766L121.549 48.7765C122.899 48.2447 122.804 48.7061 122.804 42.6621C122.804 36.5787 122.872 36.9134 121.539 36.4792C121.033 36.3143 121.608 36.2863 124.924 36.3146C128.668 36.3467 128.959 36.3711 129.571 36.7034ZM143.581 37.1123C143.643 37.5775 143.738 38.1863 143.793 38.4652L143.894 38.9723L143.01 38.2164C141.885 37.254 141.249 36.931 140.242 36.8107L139.436 36.7143V42.3886C139.436 48.8168 139.34 48.3727 140.822 48.8277C141.616 49.0716 141.557 49.078 138.539 49.0724C135.631 49.0671 135.487 49.0526 136.186 48.8359C136.596 48.7089 137.091 48.4547 137.287 48.2707C137.639 47.9398 137.642 47.8798 137.642 42.3254V36.7143L136.838 36.8104C135.832 36.9307 134.883 37.4128 133.957 38.2737C133.147 39.0278 133.128 38.9952 133.419 37.3085L133.599 36.2666H138.535H143.47L143.581 37.1123ZM112.097 36.8318C111.103 37.1456 110.483 37.6566 110.185 38.4068C109.612 39.8523 110.047 40.8009 111.687 41.6819C111.895 41.7938 112.812 42.1105 113.725 42.3858C116.402 43.1929 117.435 43.8652 117.969 45.148L118.207 45.72L118.325 44.9264C118.695 42.4375 117.474 38.9273 115.763 37.5597C114.604 36.6332 113.452 36.4043 112.097 36.8318ZM124.598 40.236V43.741L125.372 42.99C125.798 42.5772 126.44 42.0289 126.799 41.7719C128.507 40.5477 129 39.8349 129 38.5875C129 37.9564 128.909 37.6588 128.607 37.3042C128.227 36.8576 128.154 36.8407 126.406 36.7869L124.598 36.7311V40.236ZM24.9315 38.0397C24.781 38.4672 23.8493 40.0639 22.8612 41.5878C21.8685 43.1185 21.017 44.6144 20.9581 44.9302C20.5515 47.1178 22.1052 48.4132 23.5744 47.1117C24.0129 46.7232 24.2301 46.3255 24.4952 45.4251C24.8916 44.0793 25.3154 43.1723 25.6979 42.8521C25.8452 42.7287 26.2797 42.6432 26.6812 42.6585L27.4006 42.6859L27.0133 41.6564C25.8049 38.4437 25.4269 37.4885 25.3221 37.3815C25.2578 37.3159 25.0821 37.6121 24.9315 38.0397ZM109.209 40.0949C109.034 40.755 109.107 42.4148 109.358 43.492C109.889 45.7641 111.253 47.7899 112.66 48.3971C113.521 48.7685 115.081 48.7288 115.88 48.3153C117.358 47.5507 117.953 46.1807 117.332 44.9698C116.949 44.2218 115.794 43.5824 113.463 42.8271C111.089 42.0579 110.192 41.4917 109.655 40.4216C109.341 39.7952 109.297 39.7633 109.209 40.0949Z"/>
</mask>
<path fill-rule="evenodd" clip-rule="evenodd" d="M16.8156 36.274C18.5674 36.5542 18.446 36.4145 18.4257 38.1284C18.4157 38.9597 18.3709 39.7023 18.3262 39.7786C18.2815 39.855 18.0653 39.5958 17.8455 39.2027C16.4303 36.6707 13.9252 35.823 12.5127 37.3981C12.3173 37.6162 12.2055 37.9854 12.2055 38.4135C12.2055 39.3422 12.9475 40.0763 15.463 41.6361C16.5575 42.3149 17.6735 43.1235 17.9428 43.433C19.3711 45.0746 18.8477 47.7522 16.9009 48.7622C16.1717 49.1407 15.9074 49.1826 14.292 49.1767C13.3035 49.1729 12.0726 49.0752 11.557 48.9593L10.6194 48.7486V47.007V45.2655L11.2428 46.2371C12.9144 48.8427 15.149 49.5191 16.6526 47.8748C16.9969 47.4982 17.0602 47.2691 17.0602 46.3987C17.0602 44.9818 16.7237 44.5951 14.041 42.9301C12.8318 42.1795 11.6348 41.3075 11.381 40.9923C10.1987 39.5232 10.8327 37.245 12.6562 36.4089C13.4101 36.0634 15.1462 36.0071 16.8156 36.274ZM39.6439 36.3255L40.7037 36.5134L40.7505 38.235L40.7975 39.9566L40.1674 38.973C38.8343 36.8913 37.1719 36.1242 35.6127 36.8708C34.9391 37.1935 34.5178 38.0328 34.6725 38.7438C34.8225 39.4326 35.8141 40.3364 37.6289 41.4382C40.6832 43.2924 41.1698 43.8687 41.1841 45.6477C41.1959 47.0995 40.5994 48.1416 39.4011 48.7629C38.6666 49.1438 38.4139 49.1826 36.7121 49.1762C35.6789 49.1723 34.4483 49.0722 33.9776 48.9541L33.1215 48.7392L33.1235 46.9866L33.1254 45.2342L33.5417 45.9747C34.8035 48.2189 36.7988 49.2631 38.3361 48.4836C39.4808 47.9033 39.9211 46.6335 39.4076 45.3933C39.0837 44.6116 38.5274 44.1298 36.7124 43.0601C33.8962 41.4004 33.2846 40.7017 33.2846 39.1448C33.2846 37.7863 34.1411 36.6875 35.5289 36.2659C36.1655 36.0724 38.3994 36.1048 39.6439 36.3255ZM49.2643 36.274C51.0299 36.5565 50.8954 36.3827 50.8918 38.3755L50.8887 40.1334L50.3849 39.3106C48.7458 36.6345 46.6526 35.8445 45.0656 37.303C44.7887 37.5576 44.6987 37.8223 44.6987 38.3823C44.6987 39.0526 44.7737 39.1969 45.474 39.8757C45.9004 40.2889 46.9748 41.0624 47.8614 41.5945C50.6787 43.2855 51.3626 44.2145 51.1706 46.0905C50.916 48.5812 48.7381 49.6478 44.9985 49.1134C42.8886 48.8117 43.0679 49.0089 43.0697 46.9921L43.0712 45.2342L43.6929 46.2215C45.3773 48.8957 47.6856 49.5502 49.1668 47.7738C49.5767 47.2821 49.6178 47.126 49.5577 46.2867C49.4717 45.0891 49.0134 44.4698 47.5607 43.5888C45.0745 42.0812 44.0771 41.3795 43.7384 40.8995C43.3004 40.2788 43.126 38.9792 43.3773 38.2108C43.6161 37.4801 44.483 36.634 45.2898 36.3437C46.0465 36.0716 47.8056 36.0407 49.2643 36.274ZM90.1921 36.274C91.9574 36.5565 91.8228 36.3829 91.8212 38.3755L91.8196 40.1334L91.3457 39.3106C90.0798 37.1128 88.291 36.1553 86.7025 36.825C85.9855 37.1275 85.6264 37.6743 85.6264 38.4639C85.6264 39.0028 85.7388 39.2188 86.3195 39.7962C86.7005 40.1753 87.8563 41.0115 88.8876 41.6546C91.6239 43.3607 92.1488 44.0235 92.1488 45.7733C92.1488 47.7608 90.7864 49.0438 88.4894 49.219C87.0963 49.3253 84.568 48.9967 84.2409 48.6668C84.0699 48.494 84.0171 48.0461 84.0394 46.9568C84.0562 46.1451 84.1084 45.481 84.1555 45.481C84.2025 45.481 84.4188 45.8195 84.6364 46.233C85.081 47.0789 86.2575 48.2077 87.048 48.5468C87.7658 48.8549 88.5144 48.8238 89.3253 48.4522C90.1456 48.0762 90.5182 47.4311 90.5182 46.386C90.5182 44.9853 90.0176 44.4393 87.2225 42.7914C84.6916 41.2992 83.9843 40.319 84.2325 38.6484C84.3742 37.6955 85.2292 36.6949 86.1972 36.3493C86.9736 36.0721 88.7236 36.0392 90.1921 36.274ZM116.608 36.7026C117.95 37.3438 118.8 38.2008 119.438 39.5575C119.875 40.485 119.95 40.8481 120.004 42.2922C120.08 44.2897 119.798 45.4837 118.953 46.74C117.664 48.6586 114.957 49.6282 112.341 49.1087C109.59 48.5625 107.839 46.6605 107.487 43.8364C107.098 40.7055 108.284 38.0137 110.568 36.8456C111.744 36.2445 112.421 36.1117 114.08 36.1567C115.332 36.1906 115.704 36.2709 116.608 36.7026ZM26.273 36.4494C26.273 36.7237 29.9945 46.4217 30.4408 47.3106C30.6538 47.7345 31.0236 48.2367 31.263 48.4265L31.698 48.7719H29.9355H28.1728L28.5275 48.3912C29.135 47.7384 28.9369 46.5325 27.8262 44.1227C27.3704 43.1338 26.9797 42.7924 26.4033 42.8791C25.8142 42.9678 25.4758 43.6809 25.1189 45.5859C24.6258 48.2174 24.0501 48.9913 22.5851 48.9913C21.2458 48.9913 20.3698 47.9434 20.371 46.3426C20.3718 45.0307 20.6979 44.3026 22.6362 41.286C24.3975 38.5445 24.8303 37.5943 24.5355 37.1151C24.4432 36.9652 24.0077 36.7189 23.5674 36.5677L22.7673 36.2929L24.5202 36.2797C25.7043 36.2709 26.273 36.3258 26.273 36.4494ZM57.4434 36.4905C56.4334 36.8596 56.4629 37.0233 58.0234 39.7136C58.8109 41.0716 59.4924 42.1844 59.5375 42.1865C59.6712 42.1925 62.4721 37.4144 62.4721 37.1801C62.4721 36.9068 62.1947 36.6862 61.5753 36.4662C61.1922 36.3303 61.6165 36.2927 63.532 36.2936C65.8743 36.2945 65.941 36.3036 65.106 36.5075C63.5631 36.8841 63.0681 37.3838 61.2995 40.3497L59.7001 43.0321V45.4761V47.9199L60.2018 48.3459C60.4777 48.5802 60.8262 48.7731 60.9764 48.7744C61.1264 48.7759 61.3592 48.8488 61.4937 48.9365C61.6565 49.0426 60.7559 49.0943 58.8033 49.0908L55.8682 49.0855L56.652 48.7765C57.9515 48.2643 57.9064 48.3826 57.9064 45.4741V42.8748L56.3134 40.2286C54.5771 37.3445 54.191 36.9534 52.6683 36.5364C51.817 36.3034 51.8809 36.2964 54.8899 36.2941C57.5024 36.2919 57.9025 36.3228 57.4434 36.4905ZM81.7907 36.6368C81.8368 36.8405 81.9359 37.4246 82.0109 37.9351L82.1473 38.8631L81.33 38.2112C79.8651 37.0427 79.3806 36.8662 77.4327 36.7913L75.6799 36.7238V39.5392V42.3547H77.1268C79.169 42.3547 80.6201 41.8305 80.9979 40.9561C81.1867 40.5189 81.2102 40.7163 81.2035 42.6838C81.1983 44.1767 81.1502 44.7516 81.0567 44.437C80.877 43.832 80.5498 43.5934 79.3263 43.1756C78.5725 42.9183 78.009 42.8457 77.0435 42.8822L75.7614 42.9306V45.7279V48.5251L77.2289 48.5113C78.9138 48.4955 79.9077 48.1193 81.3711 46.9435C81.8282 46.5763 82.1976 46.3747 82.1923 46.4955C82.1867 46.6162 82.0933 47.2334 81.9847 47.8669L81.7872 49.0187L76.8177 49.0484C71.9316 49.0776 71.8613 49.0734 72.6427 48.7943C74.0913 48.2771 74.0496 48.4583 74.0468 42.7067C74.045 39.0038 73.9902 37.5559 73.8404 37.2538C73.7059 36.9827 73.3594 36.7467 72.8237 36.5618C72.022 36.2847 72.0759 36.2809 76.8589 36.2738L81.7068 36.2666L81.7907 36.6368ZM103.685 36.6742L104.704 36.9682L104.696 38.5508C104.687 40.0916 104.68 40.1225 104.411 39.722C103.932 39.009 102.721 37.7578 102.189 37.426C100.872 36.6046 98.966 36.6712 97.7199 37.5821C95.3121 39.3421 95.3413 45.0429 97.7711 47.5648C98.4207 48.2391 98.7889 48.4725 99.5544 48.6951C101.222 49.1802 102.805 48.7591 103.856 47.551C104.68 46.6037 104.77 44.9445 104.05 43.962C103.668 43.4402 103.737 43.168 104.182 43.4423C104.668 43.7416 105.03 44.6889 105.03 45.6609C105.031 48.1891 102.71 49.7554 99.633 49.3029C95.9877 48.7667 93.8896 46.1075 94.1512 42.3547C94.3534 39.4505 95.8325 37.4028 98.3302 36.5685C99.4827 36.1835 102.168 36.2365 103.685 36.6742ZM129.571 36.7034C130.376 37.141 130.794 37.8327 130.794 38.7272C130.794 39.9 130.105 40.7952 128.612 41.5639L127.941 41.9091L128.706 42.1342C129.675 42.4194 130.541 43.2358 130.775 44.0844C130.874 44.4452 130.955 45.4483 130.956 46.3135C130.956 47.3118 131.031 47.9884 131.161 48.1656C131.273 48.3193 131.731 48.5891 132.18 48.7653L132.995 49.0855L130.06 49.0908C128.107 49.0943 127.207 49.0426 127.37 48.9365C127.504 48.8488 127.737 48.7759 127.887 48.7744C128.037 48.7731 128.386 48.5802 128.661 48.3459L129.163 47.9199V46.053C129.163 45.0262 129.085 43.9776 128.989 43.7229C128.288 41.854 126.087 42.2002 125.027 44.3465C124.669 45.0715 124.598 45.4391 124.598 46.5514C124.598 47.3606 124.678 47.9963 124.801 48.1656C124.914 48.3193 125.372 48.5891 125.82 48.7653L126.636 49.0855H123.701H120.766L121.549 48.7765C122.899 48.2447 122.804 48.7061 122.804 42.6621C122.804 36.5787 122.872 36.9134 121.539 36.4792C121.033 36.3143 121.608 36.2863 124.924 36.3146C128.668 36.3467 128.959 36.3711 129.571 36.7034ZM143.581 37.1123C143.643 37.5775 143.738 38.1863 143.793 38.4652L143.894 38.9723L143.01 38.2164C141.885 37.254 141.249 36.931 140.242 36.8107L139.436 36.7143V42.3886C139.436 48.8168 139.34 48.3727 140.822 48.8277C141.616 49.0716 141.557 49.078 138.539 49.0724C135.631 49.0671 135.487 49.0526 136.186 48.8359C136.596 48.7089 137.091 48.4547 137.287 48.2707C137.639 47.9398 137.642 47.8798 137.642 42.3254V36.7143L136.838 36.8104C135.832 36.9307 134.883 37.4128 133.957 38.2737C133.147 39.0278 133.128 38.9952 133.419 37.3085L133.599 36.2666H138.535H143.47L143.581 37.1123ZM112.097 36.8318C111.103 37.1456 110.483 37.6566 110.185 38.4068C109.612 39.8523 110.047 40.8009 111.687 41.6819C111.895 41.7938 112.812 42.1105 113.725 42.3858C116.402 43.1929 117.435 43.8652 117.969 45.148L118.207 45.72L118.325 44.9264C118.695 42.4375 117.474 38.9273 115.763 37.5597C114.604 36.6332 113.452 36.4043 112.097 36.8318ZM124.598 40.236V43.741L125.372 42.99C125.798 42.5772 126.44 42.0289 126.799 41.7719C128.507 40.5477 129 39.8349 129 38.5875C129 37.9564 128.909 37.6588 128.607 37.3042C128.227 36.8576 128.154 36.8407 126.406 36.7869L124.598 36.7311V40.236ZM24.9315 38.0397C24.781 38.4672 23.8493 40.0639 22.8612 41.5878C21.8685 43.1185 21.017 44.6144 20.9581 44.9302C20.5515 47.1178 22.1052 48.4132 23.5744 47.1117C24.0129 46.7232 24.2301 46.3255 24.4952 45.4251C24.8916 44.0793 25.3154 43.1723 25.6979 42.8521C25.8452 42.7287 26.2797 42.6432 26.6812 42.6585L27.4006 42.6859L27.0133 41.6564C25.8049 38.4437 25.4269 37.4885 25.3221 37.3815C25.2578 37.3159 25.0821 37.6121 24.9315 38.0397ZM109.209 40.0949C109.034 40.755 109.107 42.4148 109.358 43.492C109.889 45.7641 111.253 47.7899 112.66 48.3971C113.521 48.7685 115.081 48.7288 115.88 48.3153C117.358 47.5507 117.953 46.1807 117.332 44.9698C116.949 44.2218 115.794 43.5824 113.463 42.8271C111.089 42.0579 110.192 41.4917 109.655 40.4216C109.341 39.7952 109.297 39.7633 109.209 40.0949Z" fill="#313131"/>
<path fill-rule="evenodd" clip-rule="evenodd" d="M16.8156 36.274C18.5674 36.5542 18.446 36.4145 18.4257 38.1284C18.4157 38.9597 18.3709 39.7023 18.3262 39.7786C18.2815 39.855 18.0653 39.5958 17.8455 39.2027C16.4303 36.6707 13.9252 35.823 12.5127 37.3981C12.3173 37.6162 12.2055 37.9854 12.2055 38.4135C12.2055 39.3422 12.9475 40.0763 15.463 41.6361C16.5575 42.3149 17.6735 43.1235 17.9428 43.433C19.3711 45.0746 18.8477 47.7522 16.9009 48.7622C16.1717 49.1407 15.9074 49.1826 14.292 49.1767C13.3035 49.1729 12.0726 49.0752 11.557 48.9593L10.6194 48.7486V47.007V45.2655L11.2428 46.2371C12.9144 48.8427 15.149 49.5191 16.6526 47.8748C16.9969 47.4982 17.0602 47.2691 17.0602 46.3987C17.0602 44.9818 16.7237 44.5951 14.041 42.9301C12.8318 42.1795 11.6348 41.3075 11.381 40.9923C10.1987 39.5232 10.8327 37.245 12.6562 36.4089C13.4101 36.0634 15.1462 36.0071 16.8156 36.274ZM39.6439 36.3255L40.7037 36.5134L40.7505 38.235L40.7975 39.9566L40.1674 38.973C38.8343 36.8913 37.1719 36.1242 35.6127 36.8708C34.9391 37.1935 34.5178 38.0328 34.6725 38.7438C34.8225 39.4326 35.8141 40.3364 37.6289 41.4382C40.6832 43.2924 41.1698 43.8687 41.1841 45.6477C41.1959 47.0995 40.5994 48.1416 39.4011 48.7629C38.6666 49.1438 38.4139 49.1826 36.7121 49.1762C35.6789 49.1723 34.4483 49.0722 33.9776 48.9541L33.1215 48.7392L33.1235 46.9866L33.1254 45.2342L33.5417 45.9747C34.8035 48.2189 36.7988 49.2631 38.3361 48.4836C39.4808 47.9033 39.9211 46.6335 39.4076 45.3933C39.0837 44.6116 38.5274 44.1298 36.7124 43.0601C33.8962 41.4004 33.2846 40.7017 33.2846 39.1448C33.2846 37.7863 34.1411 36.6875 35.5289 36.2659C36.1655 36.0724 38.3994 36.1048 39.6439 36.3255ZM49.2643 36.274C51.0299 36.5565 50.8954 36.3827 50.8918 38.3755L50.8887 40.1334L50.3849 39.3106C48.7458 36.6345 46.6526 35.8445 45.0656 37.303C44.7887 37.5576 44.6987 37.8223 44.6987 38.3823C44.6987 39.0526 44.7737 39.1969 45.474 39.8757C45.9004 40.2889 46.9748 41.0624 47.8614 41.5945C50.6787 43.2855 51.3626 44.2145 51.1706 46.0905C50.916 48.5812 48.7381 49.6478 44.9985 49.1134C42.8886 48.8117 43.0679 49.0089 43.0697 46.9921L43.0712 45.2342L43.6929 46.2215C45.3773 48.8957 47.6856 49.5502 49.1668 47.7738C49.5767 47.2821 49.6178 47.126 49.5577 46.2867C49.4717 45.0891 49.0134 44.4698 47.5607 43.5888C45.0745 42.0812 44.0771 41.3795 43.7384 40.8995C43.3004 40.2788 43.126 38.9792 43.3773 38.2108C43.6161 37.4801 44.483 36.634 45.2898 36.3437C46.0465 36.0716 47.8056 36.0407 49.2643 36.274ZM90.1921 36.274C91.9574 36.5565 91.8228 36.3829 91.8212 38.3755L91.8196 40.1334L91.3457 39.3106C90.0798 37.1128 88.291 36.1553 86.7025 36.825C85.9855 37.1275 85.6264 37.6743 85.6264 38.4639C85.6264 39.0028 85.7388 39.2188 86.3195 39.7962C86.7005 40.1753 87.8563 41.0115 88.8876 41.6546C91.6239 43.3607 92.1488 44.0235 92.1488 45.7733C92.1488 47.7608 90.7864 49.0438 88.4894 49.219C87.0963 49.3253 84.568 48.9967 84.2409 48.6668C84.0699 48.494 84.0171 48.0461 84.0394 46.9568C84.0562 46.1451 84.1084 45.481 84.1555 45.481C84.2025 45.481 84.4188 45.8195 84.6364 46.233C85.081 47.0789 86.2575 48.2077 87.048 48.5468C87.7658 48.8549 88.5144 48.8238 89.3253 48.4522C90.1456 48.0762 90.5182 47.4311 90.5182 46.386C90.5182 44.9853 90.0176 44.4393 87.2225 42.7914C84.6916 41.2992 83.9843 40.319 84.2325 38.6484C84.3742 37.6955 85.2292 36.6949 86.1972 36.3493C86.9736 36.0721 88.7236 36.0392 90.1921 36.274ZM116.608 36.7026C117.95 37.3438 118.8 38.2008 119.438 39.5575C119.875 40.485 119.95 40.8481 120.004 42.2922C120.08 44.2897 119.798 45.4837 118.953 46.74C117.664 48.6586 114.957 49.6282 112.341 49.1087C109.59 48.5625 107.839 46.6605 107.487 43.8364C107.098 40.7055 108.284 38.0137 110.568 36.8456C111.744 36.2445 112.421 36.1117 114.08 36.1567C115.332 36.1906 115.704 36.2709 116.608 36.7026ZM26.273 36.4494C26.273 36.7237 29.9945 46.4217 30.4408 47.3106C30.6538 47.7345 31.0236 48.2367 31.263 48.4265L31.698 48.7719H29.9355H28.1728L28.5275 48.3912C29.135 47.7384 28.9369 46.5325 27.8262 44.1227C27.3704 43.1338 26.9797 42.7924 26.4033 42.8791C25.8142 42.9678 25.4758 43.6809 25.1189 45.5859C24.6258 48.2174 24.0501 48.9913 22.5851 48.9913C21.2458 48.9913 20.3698 47.9434 20.371 46.3426C20.3718 45.0307 20.6979 44.3026 22.6362 41.286C24.3975 38.5445 24.8303 37.5943 24.5355 37.1151C24.4432 36.9652 24.0077 36.7189 23.5674 36.5677L22.7673 36.2929L24.5202 36.2797C25.7043 36.2709 26.273 36.3258 26.273 36.4494ZM57.4434 36.4905C56.4334 36.8596 56.4629 37.0233 58.0234 39.7136C58.8109 41.0716 59.4924 42.1844 59.5375 42.1865C59.6712 42.1925 62.4721 37.4144 62.4721 37.1801C62.4721 36.9068 62.1947 36.6862 61.5753 36.4662C61.1922 36.3303 61.6165 36.2927 63.532 36.2936C65.8743 36.2945 65.941 36.3036 65.106 36.5075C63.5631 36.8841 63.0681 37.3838 61.2995 40.3497L59.7001 43.0321V45.4761V47.9199L60.2018 48.3459C60.4777 48.5802 60.8262 48.7731 60.9764 48.7744C61.1264 48.7759 61.3592 48.8488 61.4937 48.9365C61.6565 49.0426 60.7559 49.0943 58.8033 49.0908L55.8682 49.0855L56.652 48.7765C57.9515 48.2643 57.9064 48.3826 57.9064 45.4741V42.8748L56.3134 40.2286C54.5771 37.3445 54.191 36.9534 52.6683 36.5364C51.817 36.3034 51.8809 36.2964 54.8899 36.2941C57.5024 36.2919 57.9025 36.3228 57.4434 36.4905ZM81.7907 36.6368C81.8368 36.8405 81.9359 37.4246 82.0109 37.9351L82.1473 38.8631L81.33 38.2112C79.8651 37.0427 79.3806 36.8662 77.4327 36.7913L75.6799 36.7238V39.5392V42.3547H77.1268C79.169 42.3547 80.6201 41.8305 80.9979 40.9561C81.1867 40.5189 81.2102 40.7163 81.2035 42.6838C81.1983 44.1767 81.1502 44.7516 81.0567 44.437C80.877 43.832 80.5498 43.5934 79.3263 43.1756C78.5725 42.9183 78.009 42.8457 77.0435 42.8822L75.7614 42.9306V45.7279V48.5251L77.2289 48.5113C78.9138 48.4955 79.9077 48.1193 81.3711 46.9435C81.8282 46.5763 82.1976 46.3747 82.1923 46.4955C82.1867 46.6162 82.0933 47.2334 81.9847 47.8669L81.7872 49.0187L76.8177 49.0484C71.9316 49.0776 71.8613 49.0734 72.6427 48.7943C74.0913 48.2771 74.0496 48.4583 74.0468 42.7067C74.045 39.0038 73.9902 37.5559 73.8404 37.2538C73.7059 36.9827 73.3594 36.7467 72.8237 36.5618C72.022 36.2847 72.0759 36.2809 76.8589 36.2738L81.7068 36.2666L81.7907 36.6368ZM103.685 36.6742L104.704 36.9682L104.696 38.5508C104.687 40.0916 104.68 40.1225 104.411 39.722C103.932 39.009 102.721 37.7578 102.189 37.426C100.872 36.6046 98.966 36.6712 97.7199 37.5821C95.3121 39.3421 95.3413 45.0429 97.7711 47.5648C98.4207 48.2391 98.7889 48.4725 99.5544 48.6951C101.222 49.1802 102.805 48.7591 103.856 47.551C104.68 46.6037 104.77 44.9445 104.05 43.962C103.668 43.4402 103.737 43.168 104.182 43.4423C104.668 43.7416 105.03 44.6889 105.03 45.6609C105.031 48.1891 102.71 49.7554 99.633 49.3029C95.9877 48.7667 93.8896 46.1075 94.1512 42.3547C94.3534 39.4505 95.8325 37.4028 98.3302 36.5685C99.4827 36.1835 102.168 36.2365 103.685 36.6742ZM129.571 36.7034C130.376 37.141 130.794 37.8327 130.794 38.7272C130.794 39.9 130.105 40.7952 128.612 41.5639L127.941 41.9091L128.706 42.1342C129.675 42.4194 130.541 43.2358 130.775 44.0844C130.874 44.4452 130.955 45.4483 130.956 46.3135C130.956 47.3118 131.031 47.9884 131.161 48.1656C131.273 48.3193 131.731 48.5891 132.18 48.7653L132.995 49.0855L130.06 49.0908C128.107 49.0943 127.207 49.0426 127.37 48.9365C127.504 48.8488 127.737 48.7759 127.887 48.7744C128.037 48.7731 128.386 48.5802 128.661 48.3459L129.163 47.9199V46.053C129.163 45.0262 129.085 43.9776 128.989 43.7229C128.288 41.854 126.087 42.2002 125.027 44.3465C124.669 45.0715 124.598 45.4391 124.598 46.5514C124.598 47.3606 124.678 47.9963 124.801 48.1656C124.914 48.3193 125.372 48.5891 125.82 48.7653L126.636 49.0855H123.701H120.766L121.549 48.7765C122.899 48.2447 122.804 48.7061 122.804 42.6621C122.804 36.5787 122.872 36.9134 121.539 36.4792C121.033 36.3143 121.608 36.2863 124.924 36.3146C128.668 36.3467 128.959 36.3711 129.571 36.7034ZM143.581 37.1123C143.643 37.5775 143.738 38.1863 143.793 38.4652L143.894 38.9723L143.01 38.2164C141.885 37.254 141.249 36.931 140.242 36.8107L139.436 36.7143V42.3886C139.436 48.8168 139.34 48.3727 140.822 48.8277C141.616 49.0716 141.557 49.078 138.539 49.0724C135.631 49.0671 135.487 49.0526 136.186 48.8359C136.596 48.7089 137.091 48.4547 137.287 48.2707C137.639 47.9398 137.642 47.8798 137.642 42.3254V36.7143L136.838 36.8104C135.832 36.9307 134.883 37.4128 133.957 38.2737C133.147 39.0278 133.128 38.9952 133.419 37.3085L133.599 36.2666H138.535H143.47L143.581 37.1123ZM112.097 36.8318C111.103 37.1456 110.483 37.6566 110.185 38.4068C109.612 39.8523 110.047 40.8009 111.687 41.6819C111.895 41.7938 112.812 42.1105 113.725 42.3858C116.402 43.1929 117.435 43.8652 117.969 45.148L118.207 45.72L118.325 44.9264C118.695 42.4375 117.474 38.9273 115.763 37.5597C114.604 36.6332 113.452 36.4043 112.097 36.8318ZM124.598 40.236V43.741L125.372 42.99C125.798 42.5772 126.44 42.0289 126.799 41.7719C128.507 40.5477 129 39.8349 129 38.5875C129 37.9564 128.909 37.6588 128.607 37.3042C128.227 36.8576 128.154 36.8407 126.406 36.7869L124.598 36.7311V40.236ZM24.9315 38.0397C24.781 38.4672 23.8493 40.0639 22.8612 41.5878C21.8685 43.1185 21.017 44.6144 20.9581 44.9302C20.5515 47.1178 22.1052 48.4132 23.5744 47.1117C24.0129 46.7232 24.2301 46.3255 24.4952 45.4251C24.8916 44.0793 25.3154 43.1723 25.6979 42.8521C25.8452 42.7287 26.2797 42.6432 26.6812 42.6585L27.4006 42.6859L27.0133 41.6564C25.8049 38.4437 25.4269 37.4885 25.3221 37.3815C25.2578 37.3159 25.0821 37.6121 24.9315 38.0397ZM109.209 40.0949C109.034 40.755 109.107 42.4148 109.358 43.492C109.889 45.7641 111.253 47.7899 112.66 48.3971C113.521 48.7685 115.081 48.7288 115.88 48.3153C117.358 47.5507 117.953 46.1807 117.332 44.9698C116.949 44.2218 115.794 43.5824 113.463 42.8271C111.089 42.0579 110.192 41.4917 109.655 40.4216C109.341 39.7952 109.297 39.7633 109.209 40.0949Z" stroke="#313131" mask="url(#path-25-outside-1_11559_1336)"/>
</svg>
