<svg width="20" height="20" viewBox="0 0 20 20" fill="none" xmlns="http://www.w3.org/2000/svg">
<g id="user-line">
<path id="Vector" d="M3.33337 18.3333C3.33337 14.6514 6.31814 11.6667 10 11.6667C13.682 11.6667 16.6667 14.6514 16.6667 18.3333H15C15 15.5719 12.7615 13.3333 10 13.3333C7.23862 13.3333 5.00004 15.5719 5.00004 18.3333H3.33337ZM10 10.8333C7.23754 10.8333 5.00004 8.59583 5.00004 5.83333C5.00004 3.07083 7.23754 0.833328 10 0.833328C12.7625 0.833328 15 3.07083 15 5.83333C15 8.59583 12.7625 10.8333 10 10.8333ZM10 9.16666C11.8417 9.16666 13.3334 7.67499 13.3334 5.83333C13.3334 3.99166 11.8417 2.49999 10 2.49999C8.15837 2.49999 6.66671 3.99166 6.66671 5.83333C6.66671 7.67499 8.15837 9.16666 10 9.16666Z" fill="#B7B5B9"/>
</g>
</svg>
