<svg width="29" height="28" viewBox="0 0 29 28" fill="none" xmlns="http://www.w3.org/2000/svg">
<rect x="0.5" width="28" height="28" rx="4" fill="#290F1E" fill-opacity="0.8"/>
<path d="M14.5 5C13.4 5 12.5 5.9 12.5 7C12.5 8.1 13.4 9 14.5 9C15.6 9 16.5 8.1 16.5 7C16.5 5.9 15.6 5 14.5 5ZM14.5 19C13.4 19 12.5 19.9 12.5 21C12.5 22.1 13.4 23 14.5 23C15.6 23 16.5 22.1 16.5 21C16.5 19.9 15.6 19 14.5 19ZM14.5 12C13.4 12 12.5 12.9 12.5 14C12.5 15.1 13.4 16 14.5 16C15.6 16 16.5 15.1 16.5 14C16.5 12.9 15.6 12 14.5 12Z" fill="#E9E8EB"/>
</svg>
