<svg width="27" height="26" viewBox="0 0 27 26" fill="none" xmlns="http://www.w3.org/2000/svg">
<path d="M7.89401 23.5625H19.1055C20.111 23.5625 20.9108 22.7353 20.8026 21.7821C20.1044 15.6406 15.9372 15.7422 15.9372 13C15.9372 10.2578 20.1577 10.4102 20.8021 4.21789C20.9037 3.26422 20.111 2.4375 19.1055 2.4375H7.89401C6.88854 2.4375 6.09787 3.26422 6.19741 4.21789C6.84182 10.4102 11.0622 10.207 11.0622 13C11.0622 15.793 6.89514 15.6406 6.19741 21.7821C6.08873 22.7353 6.88854 23.5625 7.89401 23.5625Z" stroke="#E9E8EB" stroke-width="0.75" stroke-linecap="round" stroke-linejoin="round"/>
<path d="M17.9334 21.9375H9.08881C8.29662 21.9375 8.07319 21.0234 8.62873 20.4567C9.97342 19.0938 12.6877 18.1177 12.6877 16.5547V11.375C12.6877 10.367 10.758 9.59766 9.56412 7.9625C9.36709 7.69285 9.3869 7.3125 9.8876 7.3125H17.1356C17.5627 7.3125 17.6551 7.6898 17.4606 7.95996C16.284 9.59766 14.3127 10.3619 14.3127 11.375V16.5547C14.3127 18.105 17.1417 18.9414 18.3955 20.4582C18.9008 21.0696 18.724 21.9375 17.9334 21.9375Z" fill="#E9E8EB"/>
</svg>
