<svg width="20" height="20" viewBox="0 0 20 20" fill="none" xmlns="http://www.w3.org/2000/svg">
<g clip-path="url(#clip0_1_1239)">
<path d="M0.400391 2.40039C0.267782 2.40039 0.140605 2.45307 0.0468372 2.54684C-0.046931 2.64061 -0.0996094 2.76778 -0.0996094 2.90039V17.1004C-0.0996094 17.233 -0.046931 17.3602 0.0468372 17.4539C0.140605 17.5477 0.267782 17.6004 0.400391 17.6004H13.7764C13.6019 17.3703 13.4269 17.1403 13.2516 16.9104C13.0332 16.5882 12.716 16.3124 12.623 15.9208C11.337 16.4516 9.85939 16.5008 8.53979 16.0602C8.51079 16.0508 8.48239 16.0392 8.45359 16.0294C8.30219 16.1774 8.13899 16.4354 8.11319 16.6004H6.21179C6.35459 16.1166 6.05139 15.3612 6.33819 14.8688C6.36099 14.8628 6.38859 14.8242 6.40119 14.7844C6.36879 14.754 6.33599 14.7244 6.30439 14.6934C6.02319 14.779 5.91079 14.9908 5.75439 15.1766C5.83979 15.5814 5.22339 15.4856 5.28559 15.8986C5.71499 16.2316 4.88919 15.9778 4.64359 16.0044C4.38299 16.0072 3.62059 15.7344 3.88519 16.2924C3.84379 16.4456 3.88199 16.5396 3.95819 16.6004H3.84139C3.82319 16.4252 3.49319 16.3992 3.36599 16.3132C3.15179 16.2612 2.89599 16.2352 2.67419 16.1364C2.61719 16.2948 2.10279 16.476 1.99019 16.6004H0.900391V9.29419C1.05379 9.39699 1.39779 9.35619 0.928991 9.13419H0.900391V6.83139C0.991391 6.78539 1.05639 6.77079 1.05239 6.84779C1.27779 6.77179 1.37599 6.22319 1.76599 6.44779C2.00919 6.48359 2.41159 6.86059 2.20939 6.90779C2.36699 7.29259 2.47879 7.04479 2.67219 7.50339C2.53979 8.13059 3.04679 8.59539 3.32499 8.99519C3.65819 9.13359 3.78999 9.56439 4.33159 9.58119C4.40519 9.64559 4.49959 9.70399 4.59799 9.75999C4.62519 9.55306 4.66299 9.34812 4.71139 9.14519C4.69839 9.14219 4.68579 9.14039 4.67179 9.13579C4.15079 9.61639 4.04399 8.78439 4.55279 8.75179C4.58679 8.74966 4.62346 8.75132 4.66279 8.75679C4.72179 8.74979 4.77079 8.75679 4.81219 8.77139C4.97929 8.22364 5.22686 7.70376 5.54679 7.22879C5.71876 6.97251 5.91161 6.73089 6.12339 6.50639C6.01819 6.33039 5.91059 6.23219 5.78359 6.46199C5.77399 6.12099 4.85199 5.76359 5.53039 6.09079C5.88619 6.39739 6.00279 6.03759 6.05899 5.79199C6.36399 5.47399 5.74639 5.36539 5.85899 5.15759C5.67179 4.87699 5.39459 4.58959 5.10979 4.41579C4.55739 4.47979 4.36379 4.36319 5.10239 4.36279C5.16899 4.01779 5.27959 3.77339 5.35579 3.48299C5.27579 3.45999 5.19219 3.46359 5.10979 3.46339C4.75639 3.41599 4.54659 3.55259 4.55379 3.82239C4.28839 3.80119 4.52679 3.34879 4.11759 3.48699C3.49719 3.47719 4.24719 3.68679 4.18959 3.71699C4.11859 3.87619 3.67159 3.77699 3.72419 3.93839C3.51939 3.55959 3.42619 4.11899 3.26679 3.73579C3.17079 3.64379 3.66879 3.82659 3.55539 3.49119C3.30459 3.39519 3.21479 3.56319 3.01939 3.63179C2.43619 3.95459 3.12119 4.25819 3.41739 4.36579C3.86379 4.24679 3.86339 4.09639 4.17379 4.26179C4.52179 4.45479 3.82239 4.31919 3.84379 4.61619C3.80379 4.43159 3.75379 4.32019 3.53779 4.55679C3.24979 4.60879 3.12119 4.21299 2.90619 4.24079C2.41619 4.17419 2.59919 5.27619 3.00279 4.90099C3.24699 5.32359 2.69079 5.01179 2.52579 4.96459C2.15319 5.38079 1.75179 4.95379 1.30699 4.93659C1.16459 4.84179 1.02499 4.84059 0.900391 4.88879V3.40039H6.14499C5.77099 3.41059 5.43699 3.45999 5.57299 3.72899C5.55099 4.24779 6.22219 3.83579 6.31879 4.30499C6.59759 4.63279 6.15299 5.32979 6.63519 5.20739C6.45779 5.42319 6.47999 5.76699 6.61839 6.03799C7.13039 5.60832 7.71103 5.26784 8.33599 5.03079C8.34699 4.96919 8.33839 4.89839 8.30159 4.81479C8.23899 4.50099 8.53019 4.40079 8.42819 4.05279C8.56539 3.79079 8.45899 3.51359 8.22379 3.40039H19.1004V4.81599C19.0693 4.80279 19.0375 4.79157 19.005 4.78239C18.7232 5.03779 18.951 5.06199 19.1004 5.00459V5.22779C18.7672 5.04039 18.4012 5.01979 18.0458 5.09779C17.8844 4.81719 17.313 4.82379 17.125 4.57119C16.7938 4.17439 17.226 4.29279 17.515 4.26219C17.433 4.01419 16.941 3.89659 16.7332 3.93759C16.3578 4.14319 16.9304 4.32759 16.8726 4.60359C16.8726 4.80419 16.628 4.80559 16.4146 4.79459C16.5008 4.58219 16.006 4.32099 15.8098 4.49379C15.4384 4.38139 15.2968 4.44739 15.5418 4.06059C15.4562 3.76319 15.1024 3.75759 14.9438 3.55119C14.7412 3.98079 14.4034 3.85059 14.0414 4.11219C13.8964 4.32419 13.5944 4.51459 13.5794 4.65459C13.355 4.75999 13.1304 4.22219 12.973 4.69859C12.8302 5.10179 12.981 5.29719 12.4992 4.96719C12.0006 4.43579 13.5008 3.98059 12.9432 3.75439C12.4804 3.88939 12.2022 4.21559 12.1102 4.67899C12.0604 4.78439 12.083 4.85779 12.1356 4.91719C13.8924 5.44119 15.3462 6.85399 15.9372 8.58719C15.9464 8.48279 15.9638 8.38239 15.9988 8.30899C16.1466 8.19619 16.0294 8.74199 16.3348 8.43159C16.1098 8.91459 16.9004 8.49559 17.0074 8.29619C16.8506 7.90259 17.5714 7.71719 17.5546 7.64299C17.2892 7.36459 17.44 7.64159 17.1472 7.70539C17.0502 7.57619 17.3332 6.86779 16.9566 6.93279C16.3942 6.78799 17.435 6.37379 17.716 6.52619C17.844 6.05259 18.028 6.42979 17.7118 6.64759C17.5914 7.06779 17.649 7.64099 18.0032 7.07939C18.1624 6.92439 18.1228 6.52039 18.33 6.44999C18.6084 6.31879 19.1052 6.21619 19.0922 5.81059C19.095 5.80979 19.0976 5.80999 19.1004 5.80939V16.6004H18.3086C18.4802 16.3628 18.7072 15.9564 18.4668 15.809C18.1046 15.7464 17.834 15.3096 17.3962 15.3278C17.1986 15.1002 16.7436 14.985 16.6212 14.9406C16.4988 14.8962 16.2864 15.1528 16.0688 15.0394C16.0033 15.0289 15.9365 15.0301 15.8714 15.043C16.5262 15.893 17.1748 16.7476 17.8258 17.6004H19.6004C19.733 17.6004 19.8602 17.5477 19.9539 17.4539C20.0477 17.3602 20.1004 17.233 20.1004 17.1004V2.90039C20.1004 2.76778 20.0477 2.64061 19.9539 2.54684C19.8602 2.45307 19.733 2.40039 19.6004 2.40039H0.400391ZM10.1384 3.46439C9.81639 3.62299 10.3874 4.25439 10.4032 3.65159C10.4622 3.73959 10.858 3.82839 10.7286 3.54459C10.441 3.37519 10.4846 3.56999 10.1382 3.46459M14.7544 3.46499C14.407 3.63419 15.0584 3.63739 14.7544 3.46499V3.46499ZM3.71839 3.52239C3.45839 3.71559 4.09999 3.90679 3.75239 3.53259L3.71839 3.52239ZM5.84739 3.63699C5.78319 3.67719 5.91239 3.69939 5.84739 3.63699V3.63699ZM3.33639 3.88399C3.32039 3.88659 3.36699 3.91939 3.33639 3.88399V3.88399ZM4.22699 3.96639C4.20299 4.09439 4.54039 4.02079 4.22699 3.96639V3.96639ZM4.66599 4.00239C4.77539 4.07639 4.96399 3.98339 4.66599 4.00239V4.00239ZM3.79099 4.01559C3.76619 4.10539 3.98479 4.03559 3.79099 4.01559V4.01559ZM4.41139 4.29719C4.31499 4.35819 4.60739 4.34239 4.41139 4.29719V4.29719ZM4.54959 4.60899C4.43159 4.98539 4.96899 5.49499 4.55199 5.06599C4.43739 4.89439 4.37779 4.72999 4.54959 4.60899ZM3.84999 4.64699C4.02179 4.93399 4.28339 5.01059 4.06439 5.10939C3.91899 5.03899 3.88539 4.81979 3.84999 4.64699ZM6.54579 4.93619C6.48059 4.94019 6.56999 4.95239 6.54579 4.93619V4.93619ZM2.49059 5.02679C2.45959 5.02819 2.46819 5.11759 2.49059 5.02679V5.02679ZM4.03939 5.17359C3.94799 5.17019 4.02539 5.36279 4.03939 5.17359V5.17359ZM5.18899 5.17479C5.11419 5.54479 5.41099 5.52119 5.39099 5.55839C5.14579 5.66639 5.20439 6.11119 5.01679 5.77179C4.89839 5.71659 5.07759 5.22819 5.15819 5.18539L5.18899 5.17479ZM3.98359 5.17519C3.98179 5.26179 4.00979 5.18119 3.98359 5.17519V5.17519ZM18.4508 5.20839C18.416 5.24239 18.4588 5.22199 18.4508 5.20839V5.20839ZM3.99799 5.25679C3.81519 5.38679 4.13439 5.39959 3.99799 5.25679V5.25679ZM10.3536 5.45339C9.26298 5.46102 8.20438 5.82278 7.33719 6.48419C5.11919 8.17319 4.68759 11.3572 6.37659 13.5752C7.95759 15.6514 10.8446 16.1522 13.0266 14.8228L13.4434 15.3702C13.3614 15.561 13.369 15.7434 13.4644 15.869L16.4884 19.84C16.6684 20.0762 17.103 20.048 17.459 19.7768C17.815 19.5058 17.9576 19.0944 17.7778 18.858L14.7538 14.887C14.6582 14.7614 14.4844 14.7054 14.2786 14.7338L13.8618 14.1866C15.7236 12.4366 16.009 9.52059 14.4282 7.44439C13.5836 6.33539 12.3652 5.67339 11.0808 5.49939C10.8398 5.46674 10.5968 5.45137 10.3536 5.45339ZM4.67579 5.95499C4.80079 6.25179 5.28359 6.07759 5.09459 6.48219C5.30499 6.68019 5.06119 7.37819 4.97939 6.78339C4.45579 6.78079 4.20579 6.25839 4.64539 5.98419L4.67579 5.95499ZM5.13199 6.00419C4.87999 6.07999 5.29199 6.14019 5.13199 6.00419V6.00419ZM17.6976 6.36979C17.7116 6.35979 17.7464 6.43159 17.6976 6.36979V6.36979ZM10.555 6.57399C10.681 6.57892 10.8063 6.58972 10.931 6.60639C11.4435 6.67566 11.9373 6.84558 12.384 7.10637C12.8306 7.36716 13.2213 7.71368 13.5336 8.12599C13.8478 8.53673 14.0777 9.00548 14.2102 9.50533C14.3428 10.0052 14.3753 10.5263 14.3059 11.0387C14.2365 11.5512 14.0666 12.0449 13.8059 12.4915C13.5452 12.9381 13.1989 13.3288 12.7868 13.6412C12.376 13.9554 11.9073 14.1854 11.4074 14.3179C10.9075 14.4505 10.3864 14.483 9.87395 14.4136C9.36148 14.3442 8.86776 14.1743 8.42114 13.9136C7.97452 13.6529 7.58379 13.3065 7.27139 12.8944C6.95723 12.4836 6.72729 12.0149 6.59477 11.515C6.46226 11.0152 6.42977 10.4941 6.49918 9.98161C6.56858 9.46917 6.73852 8.97548 6.99923 8.52888C7.25994 8.08228 7.60629 7.69158 8.01839 7.37919C8.74415 6.8232 9.64143 6.53837 10.555 6.57399ZM18.2726 6.77999C17.9586 7.03979 18.6496 6.99219 18.2726 6.77999V6.77999ZM18.6466 6.99639C18.299 7.16619 18.9504 7.16639 18.6466 6.99639V6.99639ZM18.873 7.07559C18.563 7.33359 19.189 7.19799 18.873 7.07559V7.07559ZM18.8606 7.13159C18.85 7.14979 18.8778 7.13139 18.8606 7.13159V7.13159ZM18.8902 7.16379C18.8652 7.16699 18.8996 7.17899 18.8902 7.16379V7.16379ZM10.4224 7.37239C9.98519 7.36459 9.55359 7.46239 9.15559 7.63799C9.17639 7.66339 9.20619 7.68779 9.24979 7.70979C8.84979 7.57979 8.73339 8.08519 8.90179 8.31259L9.17239 8.33479L9.39859 8.23519C9.54479 8.08319 9.58119 8.10939 9.62839 7.87919L9.71659 7.89059L9.78659 7.86139L9.94599 7.94019C10.1372 8.01499 10.1462 8.17619 10.0822 8.22339C9.99159 8.27919 10.0984 8.28739 10.1072 8.32199C10.1524 8.30899 10.1788 8.26999 10.2072 8.24919L10.2584 8.23079C10.4452 8.10819 10.3148 8.06779 10.185 7.90239L10.2538 7.91999C10.3544 8.03399 10.4136 8.16299 10.4732 8.29999C10.48 8.30539 10.4862 8.31239 10.494 8.31479C10.5392 8.32979 10.603 8.32479 10.6576 8.30979C10.7116 8.29499 10.7152 8.19199 10.706 8.09339C10.783 8.44459 11.5382 8.34019 11.0888 8.55439C10.8298 8.56019 10.4182 8.41819 10.3424 8.59759C10.1748 8.52159 10.0892 8.47179 10.0552 8.43279C9.95199 8.39399 9.65499 8.28159 9.64439 8.28159C9.63179 8.28159 9.25379 8.35039 9.25379 8.35039L8.94179 8.46879C8.84039 8.79559 8.68039 8.62079 8.62599 8.87419C8.58339 9.03619 8.21679 9.38619 8.40879 9.66179C8.58019 10.459 9.57399 9.92819 9.80559 10.311C9.69679 10.5468 10.235 10.9954 9.93379 11.3816C10.0758 11.9426 10.4574 12.8804 11.0714 12.082C11.2334 11.604 11.5822 11.3456 11.5698 10.8714C11.3844 10.4044 12.4758 10.0582 12.0392 9.67999C11.9346 9.69239 11.9226 9.71499 11.8396 9.74259C11.6652 9.73599 11.6202 9.59539 11.5608 9.50699C11.5154 9.44249 11.4753 9.37448 11.4408 9.30359C11.5518 9.47559 11.6664 9.62159 11.8272 9.71139C12.1054 9.64899 12.4244 9.44319 12.5542 9.29219C12.551 8.70359 13.3422 9.31419 13.3262 9.75659C13.3752 9.87579 13.4374 9.95859 13.4998 10.007C13.4556 9.72402 13.3712 9.44882 13.249 9.18979C13.0272 8.70299 12.672 8.28499 12.2404 7.97219C12.2324 7.98459 12.2124 7.98539 12.2164 7.95539C12.158 7.91406 12.0983 7.87466 12.0374 7.83719C12.0441 7.86506 12.052 7.89326 12.0612 7.92179C12.035 7.88279 12.0074 7.84319 11.9846 7.80499C11.5134 7.52739 10.973 7.36819 10.4226 7.37219L10.4224 7.37239ZM16.9298 7.39879C17.0748 7.81199 16.4254 8.76959 16.331 8.14099C16.3976 7.83019 16.9306 7.87699 16.9298 7.39879ZM4.75479 7.50799C4.75019 7.52299 4.78399 7.50459 4.75479 7.50799V7.50799ZM5.06299 7.65339C4.99259 7.68979 5.12119 7.70179 5.06299 7.65339V7.65339ZM11.0686 7.66659C11.23 7.80259 11.7252 7.98259 11.201 7.83899C10.9282 7.96359 10.8438 7.88379 11.0686 7.66659ZM9.82099 7.90859C9.78579 7.91939 9.81559 7.99239 9.79359 8.01539C9.94359 8.08879 9.85959 7.94599 9.88179 7.92259C9.85139 7.90819 9.83259 7.90479 9.82099 7.90859ZM12.1076 8.05759C12.154 8.17819 12.1848 8.25519 12.0656 8.10559C12.0755 8.1009 12.0844 8.09421 12.0916 8.08596C12.0988 8.0777 12.1043 8.06804 12.1076 8.05759ZM9.83499 8.07259C9.77619 8.06619 9.74499 8.10559 9.74479 8.16059C9.89979 8.24479 9.88379 8.10579 9.90279 8.09519C9.88167 8.08362 9.85883 8.07597 9.83499 8.07259ZM12.2296 8.92919C12.318 8.93279 12.145 9.05719 12.1746 8.93619C12.1992 8.93079 12.217 8.92859 12.2296 8.92919ZM18.3218 9.71159C18.0338 10.0176 18.665 10.0714 18.3218 9.71159V9.71159ZM18.3018 9.75919C18.2964 9.77959 18.3314 9.75599 18.3018 9.75919V9.75919ZM18.3266 9.80299C18.2966 9.79799 18.3294 9.82359 18.3266 9.80299V9.80299ZM18.536 9.84299C18.257 10.0858 18.8728 9.99739 18.536 9.84299V9.84299ZM18.566 9.91199C18.562 9.94139 18.5872 9.90839 18.566 9.91199V9.91199ZM18.5266 9.92259C18.5104 9.93659 18.545 9.94739 18.5266 9.92259V9.92259ZM16.2472 10.237C16.2521 10.3618 16.2532 10.4865 16.2504 10.611C16.4798 10.6476 16.7672 10.6372 16.7726 10.891C17.1838 10.9088 16.7302 11.5094 16.7152 10.9534C16.5477 10.9293 16.3768 10.9582 16.2266 11.0362C16.185 11.4726 16.0956 11.9032 15.9602 12.3202C16.2962 12.2136 16.639 12.224 16.8414 12.5506C17.3744 12.5486 16.921 12.912 17.2988 12.9862C17.4598 12.6574 17.214 12.6988 17.516 12.4308C17.809 12.0562 17.6172 11.5724 17.325 11.3678C17.2642 11.1362 17.022 11.011 17.136 10.853C17.358 11.154 17.6726 10.9286 17.41 10.7658C17.6038 10.5848 18.2962 11.2322 17.9074 10.7342C17.7154 10.6986 17.4516 10.3016 17.3918 10.5572C17.3746 10.7692 16.8456 10.2354 16.6504 10.4538C16.594 10.257 16.318 10.3758 16.3024 10.4636C16.3872 10.3316 16.3338 10.2634 16.2472 10.237ZM17.2648 10.408C16.9782 10.5708 17.5236 10.5652 17.2648 10.408V10.408ZM9.77779 10.422C9.77119 10.4306 9.80079 10.474 9.77779 10.422V10.422ZM7.26719 10.4464C7.26118 10.7241 7.29205 11.0014 7.35899 11.271C7.58899 10.9226 7.57999 10.5954 7.26719 10.4464ZM17.25 10.456C17.2288 10.4608 17.2672 10.4684 17.25 10.456V10.456ZM17.4438 10.48C17.3502 10.546 17.5372 10.546 17.4438 10.48V10.48ZM17.4438 10.482C17.3586 10.5432 17.5288 10.5432 17.4438 10.482V10.482ZM17.2692 10.4994C17.2396 10.4958 17.2724 10.5196 17.2692 10.4994V10.4994ZM16.2488 10.7166C16.2468 10.7646 16.2426 10.8126 16.2394 10.8606C16.304 10.7878 16.332 10.7126 16.2488 10.7166ZM11.6904 10.9238C11.4592 11.0508 11.9378 11.1088 11.7378 10.9598L11.7292 10.9384L11.6904 10.9238ZM11.9608 10.9594C11.7324 11.1022 11.378 11.783 11.8694 11.8044C11.9878 11.6636 12.288 11.0358 11.9608 10.9594ZM18.156 11.393C17.973 11.754 18.6874 11.6096 18.156 11.393V11.393ZM12.3268 11.441C12.0296 11.6404 12.615 11.6152 12.3268 11.441V11.441ZM18.633 12.2642C18.8022 12.6472 18.241 12.8766 18.2834 13.2322C18.5714 13.371 18.72 12.8486 18.9228 12.6888C19.1626 12.4792 18.734 12.4172 18.633 12.2642ZM5.33139 13.4422C5.36419 13.653 5.46299 13.857 5.63939 13.9192C5.529 13.7653 5.42621 13.6061 5.33139 13.4422Z" fill="#B7B5B9"/>
</g>
<defs>
<clipPath id="clip0_1_1239">
<rect width="20" height="20" fill="white"/>
</clipPath>
</defs>
</svg>
