<svg width="22" height="24" viewBox="0 0 16 24" fill="none" xmlns="http://www.w3.org/2000/svg">
    <path fill-rule="evenodd" clip-rule="evenodd"
        d="M3.5 2.25H12.5C12.6989 2.25 12.8897 2.32902 13.0303 2.46967C13.171 2.61032 13.25 2.80109 13.25 3V21C13.25 21.1989 13.171 21.3897 13.0303 21.5303C12.8897 21.671 12.6989 21.75 12.5 21.75H3.5C3.30109 21.75 3.11032 21.671 2.96967 21.5303C2.82902 21.3897 2.75 21.1989 2.75 21V3C2.75 2.80109 2.82902 2.61032 2.96967 2.46967C3.11032 2.32902 3.30109 2.25 3.5 2.25ZM0.5 3C0.5 2.20435 0.81607 1.44129 1.37868 0.87868C1.94129 0.316071 2.70435 0 3.5 0L12.5 0C13.2956 0 14.0587 0.316071 14.6213 0.87868C15.1839 1.44129 15.5 2.20435 15.5 3V21C15.5 21.7956 15.1839 22.5587 14.6213 23.1213C14.0587 23.6839 13.2956 24 12.5 24H3.5C2.70435 24 1.94129 23.6839 1.37868 23.1213C0.81607 22.5587 0.5 21.7956 0.5 21V3ZM8 19.5C8.39782 19.5 8.77936 19.342 9.06066 19.0607C9.34196 18.7794 9.5 18.3978 9.5 18C9.5 17.6022 9.34196 17.2206 9.06066 16.9393C8.77936 16.658 8.39782 16.5 8 16.5C7.60218 16.5 7.22064 16.658 6.93934 16.9393C6.65804 17.2206 6.5 17.6022 6.5 18C6.5 18.3978 6.65804 18.7794 6.93934 19.0607C7.22064 19.342 7.60218 19.5 8 19.5Z"
        fill="#86838A" />
</svg>