<svg width="14" height="20" viewBox="0 0 14 20" fill="none" xmlns="http://www.w3.org/2000/svg">
<path d="M11.4172 12.4991H9.8125V6.24914C9.8125 6.16626 9.77958 6.08677 9.72097 6.02817C9.66237 5.96956 9.58288 5.93664 9.5 5.93664H7.3125V5.31164C7.67409 5.23903 7.99958 5.04397 8.23412 4.75935C8.46865 4.47472 8.59787 4.11794 8.6 3.74914C8.6 2.16632 7.3125 0.221011 7.25938 0.138199C7.23079 0.0956603 7.19218 0.0608054 7.14695 0.0367054C7.10172 0.0126054 7.05125 0 7 0C6.94875 0 6.89828 0.0126054 6.85305 0.0367054C6.80782 0.0608054 6.76921 0.0956603 6.74062 0.138199C6.68594 0.221011 5.4 2.16945 5.4 3.74445C5.40105 4.11405 5.52978 4.47194 5.76441 4.75753C5.99903 5.04312 6.32513 5.23887 6.6875 5.31164V5.93664H4.5C4.41712 5.93664 4.33763 5.96956 4.27903 6.02817C4.22042 6.08677 4.1875 6.16626 4.1875 6.24914V12.4991H2.58281C1.93121 12.5 1.30654 12.7592 0.84579 13.2199C0.38504 13.6807 0.125827 14.3054 0.125 14.957V19.6866C0.125 19.7695 0.157924 19.849 0.216529 19.9076C0.275134 19.9662 0.35462 19.9991 0.4375 19.9991H13.5625C13.6454 19.9991 13.7249 19.9662 13.7835 19.9076C13.8421 19.849 13.875 19.7695 13.875 19.6866V14.957C13.8742 14.3054 13.615 13.6807 13.1542 13.2199C12.6935 12.7592 12.0688 12.5 11.4172 12.4991ZM6.025 3.74914C6.025 2.76632 6.6375 1.5507 7 0.917886C7.3625 1.54601 7.975 2.76164 7.975 3.74914C7.97344 3.95187 7.90882 4.1491 7.79011 4.31345C7.6714 4.4778 7.50447 4.60113 7.3125 4.66632C7.3125 4.58344 7.27958 4.50396 7.22097 4.44535C7.16237 4.38675 7.08288 4.35382 7 4.35382C6.91712 4.35382 6.83763 4.38675 6.77903 4.44535C6.72042 4.50396 6.6875 4.58344 6.6875 4.66632C6.49553 4.60113 6.3286 4.4778 6.20989 4.31345C6.09118 4.1491 6.02656 3.95187 6.025 3.74914ZM4.8125 6.56164H9.1875V12.4991H4.8125V6.56164ZM2.58281 13.1241H11.4172C11.9032 13.1246 12.3691 13.3178 12.7127 13.6614C13.0564 14.005 13.2496 14.471 13.25 14.957V16.0663H13.0516C12.6449 16.0595 12.2446 16.1678 11.8969 16.3788C11.6356 16.5297 11.3392 16.6091 11.0375 16.6091C10.7358 16.6091 10.4394 16.5297 10.1781 16.3788C9.82576 16.1792 9.42766 16.0742 9.02266 16.0742C8.61765 16.0742 8.21956 16.1792 7.86719 16.3788C7.60591 16.5297 7.30952 16.6091 7.00781 16.6091C6.70611 16.6091 6.40972 16.5297 6.14844 16.3788C5.80072 16.1678 5.40042 16.0595 4.99375 16.0663C4.58705 16.0592 4.18668 16.1676 3.83906 16.3788C3.57979 16.5373 3.28032 16.6175 2.97656 16.6101C2.67322 16.6182 2.37406 16.5379 2.11563 16.3788C1.76791 16.1678 1.3676 16.0595 0.960938 16.0663H0.75V14.957C0.750414 14.471 0.943646 14.005 1.28728 13.6614C1.6309 13.3178 2.09685 13.1246 2.58281 13.1241ZM0.75 19.3741V16.6929H0.948438C1.25168 16.6856 1.55058 16.7659 1.80938 16.9241C2.1574 17.1344 2.55749 17.2427 2.96406 17.2366C3.37066 17.2429 3.77083 17.1346 4.11875 16.9241C4.38003 16.7733 4.67642 16.6939 4.97813 16.6939C5.27983 16.6939 5.57622 16.7733 5.8375 16.9241C6.18968 17.1235 6.58749 17.2283 6.99219 17.2283C7.39689 17.2283 7.7947 17.1235 8.14687 16.9241C8.40816 16.7733 8.70455 16.6939 9.00625 16.6939C9.30795 16.6939 9.60434 16.7733 9.86562 16.9241C10.218 17.1238 10.6161 17.2288 11.0211 17.2288C11.4261 17.2288 11.8242 17.1238 12.1766 16.9241C12.4358 16.7657 12.7353 16.6854 13.0391 16.6929H13.25V19.3741H0.75Z" fill="#B7B5B9"/>
</svg>
