<svg width="20" height="20" viewBox="0 0 20 20" fill="none" xmlns="http://www.w3.org/2000/svg">
<path d="M15.779 0V1.22449H17.1602L14.4656 3.77953C13.5117 2.80336 12.1815 2.19633 10.712 2.19633C8.73535 2.19633 7.01051 3.29445 6.11488 4.91254C6.03816 4.90918 5.96105 4.90715 5.88348 4.90715C2.98824 4.90715 0.632812 7.26258 0.632812 10.1579C0.632812 12.846 2.66344 15.0684 5.27121 15.3726V16.9998H3.43812V18.2243H5.27129V20H6.49578V18.2243H8.40894V16.9998H6.49578V15.3726C8.2125 15.1723 9.67891 14.1408 10.4807 12.6923C10.5574 12.6956 10.6345 12.6977 10.712 12.6977C13.6073 12.6977 15.9627 10.3422 15.9627 7.44699C15.9627 6.46313 15.6905 5.54176 15.2177 4.75387L18.1443 1.97895V3.49977H19.3687V0H15.779ZM5.88355 14.184C3.66352 14.184 1.85738 12.3779 1.85738 10.1578C1.85738 8.02422 3.52555 6.27332 5.62602 6.14008C5.51855 6.55805 5.46137 6.99594 5.46137 7.44699C5.46137 9.80887 7.02902 11.8113 9.17844 12.4689C8.4493 13.5054 7.24426 14.184 5.88355 14.184ZM9.7291 11.3516C7.98266 10.9117 6.6859 9.32805 6.6859 7.44699C6.6859 7.03152 6.74918 6.63055 6.86656 6.2532C8.61301 6.69305 9.90977 8.27676 9.90977 10.1578C9.90977 10.5733 9.84645 10.9742 9.7291 11.3516ZM10.9696 11.4646C11.0771 11.0467 11.1343 10.6088 11.1343 10.1578C11.1343 7.7959 9.5666 5.79348 7.41723 5.13578C8.14637 4.09937 9.35145 3.42074 10.7121 3.42074C12.9322 3.42074 14.7383 5.22687 14.7383 7.44695C14.7382 9.58051 13.0701 11.3314 10.9696 11.4646Z" fill="#B7B5B9"/>
</svg>
