<svg width="20" height="20" viewBox="0 0 20 20" fill="none" xmlns="http://www.w3.org/2000/svg">
<path d="M7.72402 4.20312C3.78176 4.20312 0.585938 7.39895 0.585938 11.3412C0.585938 12.7232 0.979102 14.0132 1.6591 15.1062L0.585938 18.1777L4.08914 17.4852C5.15387 18.1165 6.39648 18.4793 7.72402 18.4793C11.6663 18.4793 14.8621 15.2835 14.8621 11.3412C14.8621 7.39895 11.6662 4.20312 7.72402 4.20312Z" stroke="#B7B5B9" stroke-miterlimit="10" stroke-linecap="round" stroke-linejoin="round"/>
<path d="M6.63672 4.28523C7.94219 2.59625 9.97535 1.52344 12.2752 1.52344C16.2175 1.5234 19.4133 4.71922 19.4133 8.66149C19.4133 10.0435 19.0201 11.3335 18.3401 12.4265L19.4133 15.498L15.9101 14.8055C15.1582 15.2513 14.2591 15.5812 13.3626 15.726" stroke="#B7B5B9" stroke-miterlimit="10" stroke-linecap="round" stroke-linejoin="round"/>
<path d="M3.24805 10.5V12.1851" stroke="#B7B5B9" stroke-miterlimit="10" stroke-linecap="round" stroke-linejoin="round"/>
<path d="M5.48633 9.26953V13.4164" stroke="#B7B5B9" stroke-miterlimit="10" stroke-linecap="round" stroke-linejoin="round"/>
<path d="M7.72461 10.5V12.1851" stroke="#B7B5B9" stroke-miterlimit="10" stroke-linecap="round" stroke-linejoin="round"/>
<path d="M9.96289 9.85156V12.8354" stroke="#B7B5B9" stroke-miterlimit="10" stroke-linecap="round" stroke-linejoin="round"/>
<path d="M12.2012 10.9688V11.7204" stroke="#B7B5B9" stroke-miterlimit="10" stroke-linecap="round" stroke-linejoin="round"/>
</svg>
